<svg height="400" viewBox="0 0 400 400" width="400" xmlns="http://www.w3.org/2000/svg" xmlns:xlink="http://www.w3.org/1999/xlink"><linearGradient id="a" x1="0%" x2="100%" y1="0%" y2="100%"><stop offset="0" stop-color="#3b82f6"/><stop offset="1" stop-color="#06b6d4"/></linearGradient><linearGradient id="b" x1="0%" x2="100%" y1="0%" y2="100%"><stop offset="0" stop-color="#0f172a"/><stop offset="1" stop-color="#1e293b"/></linearGradient><filter id="c"><feGaussianBlur result="blur" stdDeviation="12"/><feMerge><feMergeNode in="blur"/><feMergeNode in="SourceGraphic"/></feMerge></filter><rect fill="url(#b)" height="400" rx="48" width="400"/><circle cx="200" cy="200" fill="none" opacity=".15" r="155" stroke="url(#a)" stroke-width="1.5"/><path d="m200 55 130 75v140l-130 75-130-75v-140z" fill="none" filter="url(#c)" opacity=".9" stroke="url(#a)" stroke-width="3"/><circle cx="200" cy="75" fill="#3b82f6" opacity=".9" r="5"/><circle cx="310" cy="140" fill="#3b82f6" opacity=".9" r="5"/><g fill="#06b6d4"><circle cx="310" cy="260" opacity=".9" r="5"/><circle cx="200" cy="325" opacity=".9" r="5"/><circle cx="90" cy="260" opacity=".9" r="5"/></g><circle cx="90" cy="140" fill="#3b82f6" opacity=".9" r="5"/><circle cx="200" cy="200" fill="url(#a)" filter="url(#c)" r="28"/><circle cx="200" cy="200" fill="none" opacity=".5" r="42" stroke="url(#a)" stroke-width="2"/><circle cx="200" cy="200" fill="none" opacity=".25" r="56" stroke="url(#a)"/><path d="m200 200v-120" opacity=".2" stroke="#3b82f6"/><path d="m200 200 103-57" opacity=".2" stroke="#3b82f6"/><path d="m200 200 103 57" opacity=".2" stroke="#06b6d4"/><path d="m200 200v120" opacity=".2" stroke="#06b6d4"/><path d="m200 200-103 57" opacity=".2" stroke="#06b6d4"/><path d="m200 200-103-57" opacity=".2" stroke="#3b82f6"/></svg>